<?xml version="1.0" standalone="no"?>
<!DOCTYPE svg PUBLIC "-//W3C//DTD SVG 20010904//EN"
 "http://www.w3.org/TR/2001/REC-SVG-20010904/DTD/svg10.dtd">
<svg version="1.0" xmlns="http://www.w3.org/2000/svg"
 width="500.000000pt" height="500.000000pt" viewBox="0 0 500.000000 500.000000"
 preserveAspectRatio="xMidYMid meet">
<metadata>
Created by potrace 1.14, written by Peter Selinger 2001-2017
</metadata>
<g transform="translate(0.000000,500.000000) scale(0.100000,-0.100000)"
fill="#000000" stroke="none">
<path d="M2280 4780 c-30 -5 -80 -11 -110 -15 -137 -16 -419 -94 -558 -156
-133 -59 -182 -83 -182 -92 0 -4 -4 -6 -9 -3 -4 3 -23 -6 -41 -19 -19 -14 -38
-25 -42 -25 -14 0 -175 -111 -263 -180 -68 -54 -297 -277 -330 -321 -22 -30
-80 -104 -85 -109 -11 -11 -70 -100 -116 -175 -67 -108 -184 -349 -184 -378 0
-7 -4 -17 -8 -22 -9 -11 -69 -208 -88 -290 -7 -33 -37 -209 -42 -255 -9 -77
-8 -421 1 -500 18 -147 65 -362 97 -445 7 -17 13 -37 15 -45 14 -67 129 -312
209 -447 63 -105 165 -243 236 -321 14 -15 46 -51 73 -79 26 -29 47 -51 47
-49 0 1 24 -20 53 -48 51 -49 76 -70 162 -135 22 -17 45 -35 52 -41 30 -25
194 -126 267 -165 90 -47 267 -125 300 -131 12 -2 30 -8 41 -13 41 -21 281
-80 385 -96 186 -27 546 -27 695 1 11 2 43 8 70 14 28 5 61 12 75 14 115 23
279 77 410 134 134 59 260 124 288 149 7 7 18 13 23 13 9 0 77 47 116 80 7 5
17 10 23 10 5 0 10 5 10 10 0 6 5 10 11 10 6 0 16 6 23 12 8 7 38 33 67 57 65
54 264 253 299 299 14 19 30 39 35 45 6 7 24 30 40 52 17 22 32 42 35 45 14
14 64 96 62 103 -1 4 3 7 8 7 6 0 10 7 10 15 0 8 3 15 8 15 4 0 12 10 18 23 6
12 41 81 77 152 78 155 164 395 183 515 2 14 7 36 10 50 28 123 39 243 38 450
0 203 -10 318 -38 440 -3 14 -8 36 -10 50 -14 77 -87 310 -112 359 -8 14 -14
30 -14 35 0 15 -92 200 -109 220 -9 10 -14 19 -11 20 3 0 -11 26 -30 56 -19
30 -37 60 -40 65 -7 14 -44 69 -50 75 -3 3 -25 32 -50 65 -66 88 -85 109 -200
226 -229 232 -481 399 -780 517 -76 30 -224 79 -257 85 -10 2 -25 7 -33 10 -8
3 -33 9 -55 13 -22 4 -47 8 -55 10 -37 7 -139 24 -175 29 -65 10 -436 13 -495
5z"/>
</g>
</svg>
