<svg id="Layer_1" data-name="Layer 1" xmlns="http://www.w3.org/2000/svg" viewBox="0 0 958.35 218.18"><defs><style>.cls-1{fill:#fff;}</style></defs><path class="cls-1" d="M172.34,280c.49,0,1.89-.06,4.22-.18s5.25-.12,8.8,0l11.37.37q6,.18,12.28.55a117.43,117.43,0,0,1,16,2.2,139.83,139.83,0,0,1,18.89,5.13,94.71,94.71,0,0,1,17.78,8.25,40.91,40.91,0,0,1,12.65,11.18,39.28,39.28,0,0,1,7.89,19.81q.91,10.26,1.65,23.1a169.08,169.08,0,0,1-.18,17.6,47.72,47.72,0,0,1-3.12,14.49,30.52,30.52,0,0,1-7.7,11.18q-5.15,4.77-14.3,8.07a72.84,72.84,0,0,1-15.41,3.3q-9.17,1.09-18.15,1.28t-16.87.19H196.18c-2.45,0-3.86.36-4.22,1.1a13.75,13.75,0,0,0-.92,4q-1.09,2.21-.92,12.1t0,21.45a129.36,129.36,0,0,1-2,21.46q-1.85,9.9-7.34,12.1c.49-.24-.18.06-2,.91a13.3,13.3,0,0,1-6.42,1.1,9.49,9.49,0,0,1-6.42-2.93q-2.74-2.74-1.65-11.18,0-8.81.55-22.56t1.28-27.5q.74-13.75,1.29-25.12t.55-15.77q0-8.81-.19-21.08l-.36-24.57q-.19-12.29-.37-22.92t-.55-16.87a10.16,10.16,0,0,1,1.47-6.23Q169.77,280.74,172.34,280Zm91.31,86.18a133.1,133.1,0,0,0-.55-18.52A154.83,154.83,0,0,0,260.53,331a71.87,71.87,0,0,0-4.21-13.56,29,29,0,0,0-5.51-8.81q-4-3.66-11.55-6.23a121.77,121.77,0,0,0-15.95-4.22A164.39,164.39,0,0,0,207,295.77c-5.26-.49-9.47-1-12.65-1.47-1.22-.24-2.51.37-3.85,1.84a8.64,8.64,0,0,0-2.38,4.4Q187,312.27,187,327.49t.73,28.05v23.84c0,2.45.12,3.67.37,3.67q5.49,4.77,18,5.5a102.61,102.61,0,0,0,25.12-1.65,75.57,75.57,0,0,0,22.36-7.7Q263.28,373.89,263.65,366.18Z" transform="translate(-163.96 -274.35)"/><path class="cls-1" d="M275.75,476.92q16.5-44.35,30.44-79.57t24.2-59.78q10.26-24.56,16.5-38.5t7.34-16.13c.73-2.45,2.87-3.91,6.41-4.4a39.62,39.62,0,0,1,11.37.18,55.56,55.56,0,0,1,11.37,2.93c3.54,1.35,5.68,2.75,6.42,4.22a206.53,206.53,0,0,1,12.28,28.24q6.42,17.59,12.29,36.67t11.18,36.85q5.31,17.79,9,28.79,2.55,7.69,5.13,16.68t4.58,17.24q2,8.25,3.67,14.3a37.89,37.89,0,0,0,2.75,7.88,33.52,33.52,0,0,1,.55,5.5c.12,2.7-.31,4.4-1.28,5.14a16.28,16.28,0,0,1-6.42,2.93,17.4,17.4,0,0,1-6.6.19,25.34,25.34,0,0,1-5.68-1.66c-1.72-.73-2.7-1.59-2.94-2.56a247.11,247.11,0,0,1-9.53-30.81q-3.67-15.39-7.7-33a4.07,4.07,0,0,0-2.2-2.75c-1-.37-2.08-.79-3.3-1.28a329.14,329.14,0,0,1-38.51.73,294.79,294.79,0,0,0-39.24,1.1q-.74,0-3.11,4.95t-5.5,12.29q-3.12,7.33-6.42,16.13t-6.24,16.5q-2.93,7.71-5.13,13.2t-2.57,6.24a9.15,9.15,0,0,1-3.3,3.12,26.22,26.22,0,0,1-5.86,2.75,26.54,26.54,0,0,1-7,1.28,8.56,8.56,0,0,1-6.24-2c-.49-.24-.79-1-.91-2.2a40.39,40.39,0,0,1-.19-4.21c0-1.6.06-3.06.19-4.41S275.75,477.42,275.75,476.92Zm57.21-81a88.14,88.14,0,0,0,12.1,1.1q8.43.38,18,.55t18.52.18a88.84,88.84,0,0,0,13.38-.73c1.47-.24,3.49-.49,6.05-.73s3.61-1.1,3.12-2.57q-1.85-8.06-5.32-19.62t-7.33-23.65q-3.85-12.11-7.7-23.29t-6.42-18.52a5,5,0,0,0-2-1.64,7.08,7.08,0,0,0-3.48-.92,7.22,7.22,0,0,0-3.85,1.28,8.32,8.32,0,0,0-3.12,4.59q-1.83,5.49-5.32,15.21t-7.7,21.27q-4.21,11.55-9.16,24T333,395.88Z" transform="translate(-163.96 -274.35)"/><path class="cls-1" d="M478.54,359.58q.36-8.07.18-14.67t-.55-12.65q-.37-6.06-.55-12.65c-.13-4.4-.18-9.29-.18-14.67s.12-9.78.37-13.2a18,18,0,0,1,2-7.89,7.59,7.59,0,0,1,5.21-3.48,32.52,32.52,0,0,1,9.85,0c3.71.24,6.19,3.06,7.43,8.43a90.41,90.41,0,0,1,2.23,16.14q.36,8.43.19,18T504.21,342q-.37,9.54-.55,18.88c-.13,6.23-.19,12.05-.19,17.42q0,7.34.37,19.62t.55,24.75q.18,12.47.55,22.74t.37,13.2q1.1,1.1,7,1.65t13.21.55h40q3.3,0,7.15.18t9.71.55q5.51.38,7.16,4.59a11.11,11.11,0,0,1-.55,9,24.54,24.54,0,0,1-5.5,4,48.25,48.25,0,0,1-6.79,3.12,49.46,49.46,0,0,1-7,2A28.61,28.61,0,0,1,564,485a201,201,0,0,1-29.7-.73,124.85,124.85,0,0,0-30.09.73,24.72,24.72,0,0,1-5.39.18,54.54,54.54,0,0,1-6.33-.73,41.41,41.41,0,0,1-6-1.47,7.79,7.79,0,0,1-3.9-2.38q-1.12-1.09-2.05-7.7t-1.3-16.5q-.74-18.7-1.47-43.27T478.54,359.58Z" transform="translate(-163.96 -274.35)"/><path class="cls-1" d="M747.7,350.41a103.07,103.07,0,0,1-4.58,33.74,75,75,0,0,1-14.67,26.58,66.85,66.85,0,0,1-23.84,17.42q-14.11,6.24-31.72,5.5-18-.36-30.8-7.52a71.66,71.66,0,0,1-21.27-17.6,70.53,70.53,0,0,1-12.47-23.1A89.19,89.19,0,0,1,604,361a85.21,85.21,0,0,1,4-27.5,80.79,80.79,0,0,1,13.75-26.22,70,70,0,0,1,23.84-19.25q14.49-7.33,34.66-6.6,16.5.73,29,7.52a73,73,0,0,1,20.9,16.68,71.8,71.8,0,0,1,12.83,21.82A73.24,73.24,0,0,1,747.7,350.41ZM637.32,454.19a145.53,145.53,0,0,0,16.69.55q9-.18,22.91.55,9.54.73,20.72.73a122.23,122.23,0,0,1,20,1.47q2.57.38,6.42.73c2.56.25,5.07.55,7.51.92a38.75,38.75,0,0,1,6.42,1.47c1.84.61,3,1.41,3.49,2.38,2.2,5.13,2.5,8.93.91,11.37a12,12,0,0,1-7.51,4.95,42.66,42.66,0,0,1-11.56,1.1c-4.28-.12-7.88-.19-10.81-.19a55.46,55.46,0,0,0-7.71-.36H674.72c-4.89-.24-8.74-.37-11.55-.37H650q-2.75,0-6.78-.37c-3.43-.24-7-.6-10.82-1.1a61.65,61.65,0,0,1-10.45-2.2,22.91,22.91,0,0,1-8.07-4.21,13.36,13.36,0,0,1-4.4-7.52c-.49-2.69-.13-4.71,1.1-6a10.91,10.91,0,0,1,5.68-2.93,40.08,40.08,0,0,1,9.17-.92ZM725.7,352.24a49.22,49.22,0,0,0-3.85-16.5,52.21,52.21,0,0,0-9.9-15.4A50.46,50.46,0,0,0,696.18,309a46.59,46.59,0,0,0-21.46-4,45,45,0,0,0-19.25,4.77,45.85,45.85,0,0,0-14.67,11.73,56.58,56.58,0,0,0-9.53,17.05,75.21,75.21,0,0,0-4.22,20.35A43.39,43.39,0,0,0,629.62,377a54.52,54.52,0,0,0,9.53,16.86,52.28,52.28,0,0,0,15.22,12.47,40.72,40.72,0,0,0,20,4.95,44.2,44.2,0,0,0,22.18-5.5,53.32,53.32,0,0,0,16.32-14.12,61.62,61.62,0,0,0,9.9-19.06A60.12,60.12,0,0,0,725.7,352.24Z" transform="translate(-163.96 -274.35)"/><path class="cls-1" d="M792.07,274.5q29.7-.74,49.14,2t31,10.27a42.55,42.55,0,0,1,16.68,20.35Q894,320,895.12,339.41a48.11,48.11,0,0,1-2.57,19.43,61.36,61.36,0,0,1-9.35,17.42A66.22,66.22,0,0,1,868.9,390a55.8,55.8,0,0,1-17.42,8.44q5.13,5.51,9.9,9.72t9.17,8.43q4.4,4.22,8.8,8.8t9.53,10.09q2.21,2.56,6.79,7.15L905,452c3.17,3.18,6.05,6.11,8.61,8.8a58.75,58.75,0,0,1,4.59,5.13q2.56,3.68,2.38,6.42a10,10,0,0,1-1.46,4.77,10.37,10.37,0,0,1-2.94,3.11,23.81,23.81,0,0,1-2.38,1.47q-4.41,1.1-10.82-3.67a110.55,110.55,0,0,1-13.93-12.65q-7.53-7.87-15.41-17.6t-15.4-18.33q-7.51-8.62-14.12-14.86t-11-7.33a58.81,58.81,0,0,0-15.58-1.65c-5.5.13-10.33.06-14.49-.18-1.46,0-2.2,1.1-2.2,3.3q-.36,11,0,22t.37,27.14a73.68,73.68,0,0,0,.55,8.43c.37,3.18.67,6.36.92,9.53a47.19,47.19,0,0,1,0,8.26c-.25,2.32-1.1,3.85-2.57,4.58a9.36,9.36,0,0,1-5.68.55,23.25,23.25,0,0,1-6.79-2.2,21.48,21.48,0,0,1-5.68-4,7,7,0,0,1-2.39-5q-.74-12.45-.91-27.68t0-30.44q.18-15.21.36-28.24t.19-21.08q0-17.61-.37-36.12t-.73-31a54.26,54.26,0,0,1,.91-14.12,27.08,27.08,0,0,1,3.49-9,12.93,12.93,0,0,1,4.76-4.59A10.81,10.81,0,0,1,792.07,274.5Zm9.17,105.61q0,2.2,5.68,2.94a69.86,69.86,0,0,0,12.65.36q7-.36,13.39-.91a44.14,44.14,0,0,0,8.62-1.29q15.75-3.66,23.28-10.81t9.35-20q2.56-19.8-2.75-32.82t-19.62-19.25a50.8,50.8,0,0,0-12.46-3.3,118.45,118.45,0,0,0-14.49-1.29q-7.15-.18-12.65,0t-7.33.19q-1.85,0-3.12,2.93a9.21,9.21,0,0,0-.92,5.13,156.76,156.76,0,0,1,0,21.46,207.22,207.22,0,0,0-.37,21.08Z" transform="translate(-163.96 -274.35)"/><path class="cls-1" d="M946.82,476.92q16.5-44.35,30.44-79.57t24.2-59.78q10.26-24.56,16.5-38.5t7.33-16.13c.74-2.45,2.88-3.91,6.42-4.4a39.63,39.63,0,0,1,11.37.18,55.73,55.73,0,0,1,11.37,2.93c3.54,1.35,5.68,2.75,6.42,4.22a207.78,207.78,0,0,1,12.28,28.24q6.4,17.59,12.28,36.67t11.19,36.85q5.31,17.79,9,28.79,2.57,7.69,5.14,16.68t4.58,17.24q2,8.25,3.67,14.3a37.89,37.89,0,0,0,2.75,7.88,34.71,34.71,0,0,1,.55,5.5c.12,2.7-.31,4.4-1.28,5.14a16.28,16.28,0,0,1-6.42,2.93,17.4,17.4,0,0,1-6.6.19,25.58,25.58,0,0,1-5.69-1.66c-1.71-.73-2.69-1.59-2.93-2.56a248.87,248.87,0,0,1-9.54-30.81q-3.66-15.39-7.7-33a4,4,0,0,0-2.2-2.75c-1-.37-2.08-.79-3.3-1.28a329,329,0,0,1-38.5.73,294.74,294.74,0,0,0-39.24,1.1q-.74,0-3.12,4.95t-5.5,12.29q-3.12,7.33-6.41,16.13t-6.24,16.5q-2.94,7.71-5.13,13.2t-2.57,6.24a9.15,9.15,0,0,1-3.3,3.12,26.53,26.53,0,0,1-12.83,4,8.56,8.56,0,0,1-6.24-2c-.49-.24-.79-1-.91-2.2a40.39,40.39,0,0,1-.19-4.21c0-1.6.06-3.06.19-4.41S946.82,477.42,946.82,476.92Zm57.21-81a88.14,88.14,0,0,0,12.1,1.1q8.43.38,18,.55t18.51.18A88.9,88.9,0,0,0,1066,397c1.47-.24,3.48-.49,6-.73s3.6-1.1,3.12-2.57q-1.85-8.06-5.32-19.62t-7.33-23.65q-3.86-12.11-7.71-23.29t-6.41-18.52a5,5,0,0,0-2-1.64,7.08,7.08,0,0,0-3.48-.92,7.22,7.22,0,0,0-3.85,1.28,8.27,8.27,0,0,0-3.12,4.59q-1.85,5.49-5.32,15.21t-7.7,21.27q-4.21,11.55-9.17,24T1004,395.88Z" transform="translate(-163.96 -274.35)"/></svg>